<?xml version="1.0" encoding="iso-8859-1"?>
<!-- Generator: Adobe Illustrator 16.0.0, SVG Export Plug-In . SVG Version: 6.00 Build 0)  -->
<!DOCTYPE svg PUBLIC "-//W3C//DTD SVG 1.1//EN" "http://www.w3.org/Graphics/SVG/1.1/DTD/svg11.dtd">
<svg version="1.1" id="Capa_1" xmlns="http://www.w3.org/2000/svg" xmlns:xlink="http://www.w3.org/1999/xlink" x="0px" y="0px"
	 width="31.925px" height="31.925px" viewBox="0 0 31.925 31.925" style="enable-background:new 0 0 31.925 31.925;"
	 xml:space="preserve">
<g>
	<g>
		<path d="M19.469,22.809c0.093-0.625,0.605-2.154,0.904-3.158c-0.105,0.002-0.212-0.007-0.315-0.036
			c-0.222-0.059-0.415-0.181-0.56-0.348c-0.224,0.035-0.449,0.003-0.652-0.092c-0.208-0.096-0.375-0.25-0.489-0.44
			c-0.225-0.004-0.439-0.073-0.625-0.204c-0.078-0.054-0.143-0.121-0.202-0.19c0.074,1.172,0.124,2.227,0.14,2.548
			c0.041,0.797-0.435,2.653-0.271,3.424c0.165,0.772,1.378,2.911,1.419,3.272c0.041,0.36-0.338,0.518-0.531,0.719
			c-0.194,0.202-0.132,0.509,0.023,0.689c0.156,0.181,0.583,0.345,0.739,0.689s-0.082,1.677-0.1,2.021
			c-0.017,0.343,0.436,0.246,0.592,0c0.155-0.246,0.846-1.396,0.887-2.095c0.041-0.697-0.275-1.633-0.345-2.045
			C20.013,27.151,19.371,23.474,19.469,22.809z"/>
		<path d="M14.822,10.664c-0.512-0.146-1.021-0.292-1.463-0.418c-1.634-0.465-7.724-1.664-8.277-1.774S4.185,8.134,3.973,8.015
			S2.29,6.229,1.632,6.18C0.976,6.131,0.681,6.722,0.943,7.042C1.205,7.362,2.584,8.692,3.16,8.89
			c0.575,0.197,0.972,0.322,1.577,0.517c0.433,0.141,6.415,2.373,9.891,3.797c-0.005-0.027-0.017-0.052-0.02-0.079
			c-0.021-0.23,0.029-0.453,0.137-0.646c-0.106-0.191-0.156-0.414-0.137-0.642c0.021-0.23,0.108-0.441,0.248-0.613
			C14.794,11.045,14.789,10.853,14.822,10.664z"/>
		<path d="M30.9,0.021c-0.319-0.147-2.353,0.518-2.784,1.01c-0.431,0.493-3.024,5.934-3.424,6.701
			c0.025-0.185-0.505-0.775-0.342-1.081c0.163-0.305,0.958-0.803,1.007-1c0.049-0.196-0.542-0.665-0.468-0.801
			c0.074-0.135,0.209-0.258,0.123-0.369c-0.086-0.11-0.689-0.099-0.862-0.222c-0.172-0.123-0.558-0.44-0.812-0.64
			c-0.254-0.2-1.527-0.025-2.021,0.394s-0.656,1.057-0.714,1.232c-0.057,0.175-0.283,0.185-0.32,0.394
			c-0.036,0.209,0.53,0.887,0.715,0.961s1.024,0.575,1.22,0.689s-0.012,0.259-0.16,0.172c-0.148-0.086-7.454-4.776-7.957-5.1
			c-0.504-0.322-3.24-0.185-3.598,0c-0.356,0.186,1.158,1.108,1.527,1.011c0.37-0.1,1.22-0.505,1.479-0.346
			c0.259,0.16,6.898,5.531,7.145,5.913c0.247,0.382,0.428,1.89,0.223,2.217c-0.051,0.081-0.138,0.125-0.243,0.149
			c-1.338-1.168-3.224-2.807-3.411-2.937c-0.288-0.204-0.69-0.133-0.894,0.155c-0.146,0.208-0.146,0.47-0.031,0.677
			c-0.235,0.005-0.463,0.136-0.568,0.363c-0.107,0.229-0.062,0.487,0.087,0.672c-0.233,0.045-0.434,0.215-0.498,0.458
			c-0.065,0.245,0.023,0.489,0.201,0.646c-0.221,0.086-0.389,0.287-0.411,0.538c-0.021,0.251,0.108,0.478,0.312,0.601
			c-0.203,0.123-0.333,0.351-0.312,0.601c0.022,0.252,0.19,0.451,0.411,0.538c-0.179,0.156-0.268,0.401-0.202,0.645
			c0.064,0.246,0.265,0.413,0.499,0.459c-0.149,0.185-0.194,0.443-0.087,0.669c0.106,0.23,0.333,0.361,0.568,0.367
			c-0.114,0.208-0.111,0.469,0.031,0.675c0.146,0.206,0.389,0.296,0.623,0.26c-0.075,0.225-0.029,0.48,0.149,0.658
			c0.178,0.179,0.435,0.224,0.658,0.148c-0.035,0.232,0.055,0.479,0.262,0.624c0.208,0.145,0.467,0.145,0.675,0.032
			c0.006,0.235,0.138,0.463,0.365,0.568c0.229,0.107,0.486,0.062,0.671-0.086c0.046,0.232,0.213,0.432,0.459,0.497
			c0.243,0.066,0.488-0.023,0.644-0.202c0.086,0.222,0.287,0.389,0.54,0.41c0.251,0.021,0.477-0.108,0.6-0.311
			c0.123,0.203,0.349,0.332,0.602,0.311c0.251-0.022,0.45-0.189,0.535-0.41c0.158,0.179,0.402,0.268,0.647,0.202
			c0.244-0.066,0.41-0.266,0.457-0.497c0.185,0.147,0.442,0.192,0.673,0.086c0.227-0.106,0.358-0.333,0.363-0.57
			c0.208,0.114,0.468,0.114,0.676-0.031c0.289-0.203,0.36-0.604,0.158-0.895c-0.136-0.191-1.895-2.211-3.066-3.554
			c1.325-1.071,2.713-2.154,2.835-2.467c0.238-0.608-0.113-1.527-0.147-1.995c-0.035-0.468,3.019-7.371,3.178-7.76
			c0.16-0.391,1.231,0.062,1.725-0.173C31.097,1.043,31.22,0.169,30.9,0.021z"/>
	</g>
</g>
<g>
</g>
<g>
</g>
<g>
</g>
<g>
</g>
<g>
</g>
<g>
</g>
<g>
</g>
<g>
</g>
<g>
</g>
<g>
</g>
<g>
</g>
<g>
</g>
<g>
</g>
<g>
</g>
<g>
</g>
</svg>
